<svg width="263" height="19" viewBox="0 0 263 19" fill="none" xmlns="http://www.w3.org/2000/svg">
<path d="M8.22656 1.00781C7.26562 1.00781 5.60156 1.05469 4.45312 1.07812C4.20703 1.07812 3.94922 1.08984 3.70312 1.08984C2.57812 1.08984 1.46484 1.04297 0.808594 1.00781V1.48828C2.32031 1.55859 2.60156 1.80469 2.60156 3.55078V15.457C2.60156 17.2031 2.33203 17.4492 0.808594 17.5195V18C1.61719 17.9531 3.08203 17.9297 4.5 17.9297C5.57812 17.9297 7.25391 18 8.00391 18C14.0391 18 17.5547 14.543 17.5547 9.31641C17.5547 3.96094 14.543 1.00781 8.22656 1.00781ZM8.20312 1.44141C12.0703 1.44141 13.5703 4.03125 13.5703 9.41016C13.5703 14.6367 12.2695 17.5664 8.22656 17.5664C6.73828 17.5664 6.42188 17.1797 6.42188 15.5039V3.50391C6.42188 1.85156 6.73828 1.44141 8.20312 1.44141ZM28.1602 0.667969C23.168 0.667969 19.6641 4.27734 19.6641 9.64453C19.6641 15.1406 23.0508 18.3398 28.1367 18.3398C33.1172 18.3398 36.6328 14.7305 36.6328 9.36328C36.6328 3.86719 33.2344 0.667969 28.1602 0.667969ZM28.0547 1.10156C30.5977 1.10156 32.6484 4.34766 32.6484 9.45703C32.6484 14.4258 30.9141 17.9062 28.2305 17.9062C25.6992 17.9062 23.6484 14.6602 23.6484 9.55078C23.6484 4.58203 25.3711 1.10156 28.0547 1.10156ZM58.9336 1.00781C58.043 1.05469 56.5547 1.07812 55.1602 1.07812H53.4609L49.0312 12.6797L44.1914 1.00781C43.1484 1.05469 41.7891 1.07812 40.3945 1.07812C39.6445 1.07812 38.8125 1.05469 38.3086 1.00781V1.48828C39.832 1.55859 40.1133 1.80469 40.1133 3.55078V14.3555C40.1133 16.6758 39.8438 17.3086 38.3086 17.5195V18C38.8125 17.9531 39.6445 17.9297 40.3945 17.9297C41.2617 17.9297 42.375 17.9531 42.9961 18V17.5195C40.875 17.3086 40.6641 16.6992 40.6641 14.0625V2.55469L47.1445 18.0352H47.5312L53.3086 2.96484V15.457C53.3086 17.2031 53.0039 17.4492 51.3633 17.5195V18C52.1836 17.9531 53.625 17.9297 55.1602 17.9297C56.5547 17.9297 58.043 17.9531 58.9336 18V17.5195C57.4102 17.4492 57.1289 17.2031 57.1289 15.457V3.55078C57.1289 1.80469 57.3984 1.55859 58.9336 1.48828V1.00781ZM85.9922 1.07812C84.9961 1.07812 84.082 1.05469 83.0039 1.00781V1.48828C84.3281 1.52344 85.0664 2.05078 85.0664 3.49219C85.0664 4.19531 84.8906 5.10938 84.5273 6.28125L82.2422 13.5469L78.9492 3.50391C78.7852 3.02344 78.7031 2.66016 78.7031 2.37891C78.7031 1.65234 79.2656 1.53516 80.3438 1.48828V1.00781C79.582 1.05469 78.293 1.07812 76.8867 1.07812C75.6562 1.07812 74.3438 1.05469 73.4648 1.00781V1.48828C73.9688 1.52344 74.4375 1.78125 74.7656 2.77734L76.0078 6.51562L73.5586 13.6523L70.0781 3.50391C69.9375 3.10547 69.8555 2.74219 69.8555 2.42578C69.8555 1.92188 70.0781 1.57031 70.6992 1.48828V1.00781C70.0664 1.05469 69.0234 1.07812 67.7461 1.07812C66.5273 1.07812 65.1211 1.05469 64.1719 1.00781V1.48828C64.6289 1.51172 65.2617 1.86328 65.6836 3.02344L71.0625 18.0469C71.3203 18.0352 71.5898 18.0234 71.8828 18.0234C72.1758 18.0234 72.4688 18.0352 72.7266 18.0469L76.2891 7.37109L79.8281 18.0469C80.0859 18.0352 80.3555 18.0234 80.6484 18.0234C80.9414 18.0234 81.2344 18.0352 81.4922 18.0469L85.7227 4.33594C86.2734 2.51953 87.1289 1.75781 87.8203 1.48828V1.00781C87.3398 1.05469 86.6953 1.07812 85.9922 1.07812ZM101.637 14.3555C101.637 13.5703 101.66 12.8555 101.707 12.3398H101.156C100.559 16.207 99.082 17.4492 96.9375 17.4492H95.7539C94.3594 17.4492 94.1016 17.2383 94.1016 15.7383V9.69141H94.875C96.7969 9.69141 97.5586 11.1797 97.8047 12.8672H98.3555C98.2383 11.0391 98.2148 10.2422 98.2148 9.45703C98.2148 9.10547 98.2031 8.75391 98.2031 8.30859C98.2031 7.75781 98.2148 7.06641 98.2852 6.04688H97.7344C97.4766 7.34766 96.7969 9.21094 94.875 9.21094H94.1016V3.26953C94.1016 1.76953 94.3594 1.55859 95.7539 1.55859H96.7383C98.9414 1.55859 100.195 2.67188 100.676 6.1875H101.227C101.18 5.80078 101.156 5.19141 101.156 4.55859C101.156 3.86719 101.203 2.42578 101.32 1.00781C99.8438 1.07812 97.7695 1.07812 96.3047 1.07812C94.6992 1.07812 91.1016 1.07812 88.4883 1.00781V1.48828C90 1.55859 90.2812 1.80469 90.2812 3.55078V15.457C90.2812 17.2031 90.0117 17.4492 88.4883 17.5195V18C91.1016 17.9297 94.6992 17.9297 96.3047 17.9297C97.9219 17.9297 100.172 17.9297 101.801 18C101.66 16.5586 101.637 15.0703 101.637 14.3555ZM109.699 0.703125C106.887 0.703125 104.32 2.0625 104.32 5.08594C104.32 7.75781 106.312 9.10547 108.598 10.5586C110.707 11.918 112.195 13.0547 112.195 15.0234C112.195 16.8164 110.895 17.707 109.219 17.707C106.148 17.707 105.047 14.8828 104.848 11.6836H104.297C104.297 15.5039 104.273 17.0391 104.203 18.1641H104.754C104.848 17.4727 104.965 17.1094 105.281 17.1094C105.469 17.1094 105.715 17.2031 106.102 17.4492C106.91 17.8828 107.965 18.3398 109.957 18.3398C113.18 18.3398 115.91 16.8281 115.91 13.6641C115.91 11.0625 114.129 9.76172 111.855 8.25C109.172 6.44531 107.707 5.66016 107.707 3.72656C107.707 2.20312 108.809 1.27734 110.344 1.27734C112.91 1.27734 114.258 3.89062 114.422 6.38672H114.973C114.973 3.01172 115.02 1.86328 115.102 0.914062H114.551C114.445 1.60547 114.328 1.96875 114.012 1.96875C113.801 1.96875 113.59 1.86328 113.203 1.62891C112.453 1.18359 111.574 0.703125 109.699 0.703125ZM130.863 14.3555C130.863 13.5703 130.887 12.8555 130.934 12.3398H130.383C129.785 16.207 128.309 17.4492 126.164 17.4492H124.98C123.586 17.4492 123.328 17.2383 123.328 15.7383V9.69141H124.102C126.023 9.69141 126.785 11.1797 127.031 12.8672H127.582C127.465 11.0391 127.441 10.2422 127.441 9.45703C127.441 9.10547 127.43 8.75391 127.43 8.30859C127.43 7.75781 127.441 7.06641 127.512 6.04688H126.961C126.703 7.34766 126.023 9.21094 124.102 9.21094H123.328V3.26953C123.328 1.76953 123.586 1.55859 124.98 1.55859H125.965C128.168 1.55859 129.422 2.67188 129.902 6.1875H130.453C130.406 5.80078 130.383 5.19141 130.383 4.55859C130.383 3.86719 130.43 2.42578 130.547 1.00781C129.07 1.07812 126.996 1.07812 125.531 1.07812C123.926 1.07812 120.328 1.07812 117.715 1.00781V1.48828C119.227 1.55859 119.508 1.80469 119.508 3.55078V15.457C119.508 17.2031 119.238 17.4492 117.715 17.5195V18C120.328 17.9297 123.926 17.9297 125.531 17.9297C127.148 17.9297 129.398 17.9297 131.027 18C130.887 16.5586 130.863 15.0703 130.863 14.3555ZM140.484 1.00781C139.594 1.05469 138.105 1.07812 136.711 1.07812C135.176 1.07812 133.734 1.05469 132.926 1.00781V1.48828C134.438 1.55859 134.719 1.80469 134.719 3.55078V15.457C134.719 17.2031 134.449 17.4492 132.926 17.5195V18C135.539 17.9297 139.137 17.9297 140.742 17.9297C142.359 17.9297 144.609 17.9297 146.238 18C146.098 16.5 146.074 14.9531 146.074 14.2031C146.074 13.3828 146.098 12.6445 146.145 12.0938H145.594C145.125 15.293 143.438 17.4492 141.223 17.4492H140.051C138.785 17.4492 138.539 17.2383 138.539 15.7383V3.55078C138.539 1.80469 138.855 1.55859 140.484 1.48828V1.00781ZM163.418 1.00781C162.914 1.05469 162.082 1.07812 161.332 1.07812C160.465 1.07812 159.352 1.05469 158.73 1.00781V1.48828C160.852 1.69922 161.062 2.30859 161.062 4.94531V12.457L151.781 1.00781C151.219 1.05469 150.469 1.07812 149.707 1.07812C148.957 1.07812 148.125 1.05469 147.621 1.00781V1.48828C149.145 1.55859 149.426 1.80469 149.426 3.55078V14.3555C149.426 16.6758 149.156 17.3086 147.621 17.5195V18C148.125 17.9531 148.957 17.9297 149.707 17.9297C150.574 17.9297 151.688 17.9531 152.309 18V17.5195C150.188 17.3086 149.977 16.6992 149.977 14.0625V4.85156L160.383 18.0469C160.617 18.0352 160.828 18.0352 161.039 18.0352C161.238 18.0352 161.438 18.0352 161.613 18.0469V4.65234C161.613 2.33203 161.883 1.69922 163.418 1.48828V1.00781ZM177.082 1.06641C176.086 1.06641 175.184 1.04297 174.094 0.996094V1.47656C175.312 1.51172 176.098 1.93359 176.098 3.07031C176.098 3.76172 175.805 4.72266 175.148 6.02344L173.285 9.75L169.629 2.74219C169.523 2.53125 169.477 2.35547 169.477 2.21484C169.477 1.59375 170.332 1.5 171.293 1.5V0.996094C169.922 1.06641 168.188 1.11328 166.781 1.11328C165.68 1.11328 164.789 1.06641 163.945 0.996094V1.5C164.285 1.5 164.754 1.76953 165.34 2.83594L169.957 11.3789V15.457C169.957 17.2031 169.688 17.4492 168.152 17.5195V18C168.938 17.9531 170.402 17.9297 171.879 17.9297C173.215 17.9297 174.715 17.9531 175.57 18V17.5195C174.059 17.4492 173.777 17.2031 173.777 15.457V9.86719L176.613 4.24219C177.492 2.50781 178.219 1.74609 178.91 1.47656V0.996094C178.43 1.04297 177.785 1.06641 177.082 1.06641Z" fill="white"/>
<path d="M192.703 1.00781C191.812 1.05469 190.324 1.07812 188.93 1.07812C187.395 1.07812 185.953 1.05469 185.145 1.00781V1.48828C186.656 1.55859 186.938 1.80469 186.938 3.55078V15.457C186.938 17.2031 186.668 17.4492 185.145 17.5195V18C187.758 17.9297 191.355 17.9297 192.961 17.9297C194.578 17.9297 196.828 17.9297 198.457 18C198.316 16.5 198.293 14.9531 198.293 14.2031C198.293 13.3828 198.316 12.6445 198.363 12.0938H197.812C197.344 15.293 195.656 17.4492 193.441 17.4492H192.27C191.004 17.4492 190.758 17.2383 190.758 15.7383V3.55078C190.758 1.80469 191.074 1.55859 192.703 1.48828V1.00781ZM207.234 1.00781C206.367 1.05469 204.938 1.07812 203.602 1.07812C202.066 1.07812 200.625 1.05469 199.816 1.00781V1.48828C201.328 1.55859 201.609 1.80469 201.609 3.55078V15.457C201.609 17.2031 201.34 17.4492 199.816 17.5195V18C200.625 17.9531 202.066 17.9297 203.602 17.9297C204.938 17.9297 206.367 17.9531 207.234 18V17.5195C205.711 17.4492 205.43 17.2031 205.43 15.457V3.55078C205.43 1.80469 205.699 1.55859 207.234 1.48828V1.00781ZM229.488 1.00781C228.598 1.05469 227.109 1.07812 225.715 1.07812H224.016L219.586 12.6797L214.746 1.00781C213.703 1.05469 212.344 1.07812 210.949 1.07812C210.199 1.07812 209.367 1.05469 208.863 1.00781V1.48828C210.387 1.55859 210.668 1.80469 210.668 3.55078V14.3555C210.668 16.6758 210.398 17.3086 208.863 17.5195V18C209.367 17.9531 210.199 17.9297 210.949 17.9297C211.816 17.9297 212.93 17.9531 213.551 18V17.5195C211.43 17.3086 211.219 16.6992 211.219 14.0625V2.55469L217.699 18.0352H218.086L223.863 2.96484V15.457C223.863 17.2031 223.559 17.4492 221.918 17.5195V18C222.738 17.9531 224.18 17.9297 225.715 17.9297C227.109 17.9297 228.598 17.9531 229.488 18V17.5195C227.965 17.4492 227.684 17.2031 227.684 15.457V3.55078C227.684 1.80469 227.953 1.55859 229.488 1.48828V1.00781ZM239.133 0.960938C238.875 0.984375 238.582 0.996094 238.301 0.996094C238.008 0.996094 237.727 0.984375 237.469 0.960938L232.008 15C231.328 16.7695 230.625 17.3906 229.922 17.5195V18C230.402 17.9531 231.059 17.9297 231.762 17.9297C232.758 17.9297 233.66 17.9531 234.75 18V17.5195C233.438 17.4844 232.617 17.1562 232.617 15.8906C232.617 15.2578 232.816 14.4023 233.273 13.2305L233.918 11.5664H239.133L240.574 15.5039C240.762 15.9844 240.855 16.3594 240.855 16.6406C240.855 17.2969 240.316 17.4727 239.168 17.5195V18C239.965 17.9531 241.336 17.9297 242.824 17.9297C244.137 17.9297 245.52 17.9531 246.469 18V17.5195C246.012 17.4961 245.402 17.1328 244.957 15.9844L239.133 0.960938ZM238.957 11.0859H234.094L236.578 4.62891L238.957 11.0859ZM262.559 16.6523C262.254 17.0156 261.996 17.2031 261.586 17.2031C260.988 17.2031 260.719 16.7578 260.449 15.4805L259.91 13.0078C259.488 11.0156 258.211 10.0898 255.305 9.84375H255.293C259.5 9.36328 260.684 7.14844 260.684 5.20312C260.684 2.56641 258.504 1.03125 254.039 1.03125C253.43 1.03125 251.836 1.07812 250.266 1.07812C248.918 1.07812 247.43 1.05469 246.621 1.00781V1.48828C248.133 1.55859 248.414 1.80469 248.414 3.55078V15.457C248.414 17.2031 248.145 17.4492 246.621 17.5195V18C247.43 17.9531 248.871 17.9297 250.406 17.9297C251.742 17.9297 253.172 17.9531 254.039 18V17.5195C252.516 17.4492 252.234 17.2031 252.234 15.457V9.9375H253.793C255.293 9.9375 255.68 11.3438 256.031 13.3477L256.453 15.7383C256.816 17.7422 257.977 18.3398 259.699 18.3398C261.105 18.3398 262.031 17.9297 262.887 16.9453L262.559 16.6523ZM253.723 1.48828C255.902 1.48828 256.699 2.95312 256.699 5.47266C256.699 7.67578 256.102 9.45703 253.266 9.45703H252.234V3.55078C252.234 1.89844 252.492 1.48828 253.723 1.48828Z" fill="#BE8B56"/>
</svg>
